<?xml version="1.0" encoding="utf-8"?>
<!-- Generator: Adobe Illustrator 16.0.0, SVG Export Plug-In . SVG Version: 6.00 Build 0)  -->
<!DOCTYPE svg PUBLIC "-//W3C//DTD SVG 1.1//EN" "http://www.w3.org/Graphics/SVG/1.1/DTD/svg11.dtd">
<svg version="1.1" id="Layer_1" xmlns="http://www.w3.org/2000/svg" xmlns:xlink="http://www.w3.org/1999/xlink" x="0px" y="0px"
	 width="365.468px" height="214.521px" viewBox="0 0 365.468 214.521" enable-background="new 0 0 365.468 214.521"
	 xml:space="preserve">
<g>
	<g>
		<path fill="#3C3C3B" d="M191.312,13.035c-0.014-0.401-0.033-0.801-0.023-1.207l0.135-0.801c0.01-0.135,0.099-0.262,0.147-0.393
			c0.055-0.126,0.108-0.26,0.241-0.396l0.08-0.08l0.107,0.03l2.659,0.737c0.447,0.115,0.845,0.341,1.27,0.507l1.255,0.54
			c0.852,0.332,1.633,0.79,2.436,1.209c0.794,0.43,1.608,0.835,2.369,1.322c3.12,1.825,6.067,3.88,8.938,6.055l-0.513-0.022
			l2.419-1.342l1.215-0.671c0.393-0.248,0.862-0.335,1.291-0.511l2.634-0.927c0.899-0.232,1.829-0.371,2.743-0.559
			c0.463-0.07,0.913-0.216,1.385-0.223l1.398-0.088c0.937-0.079,1.872-0.117,2.808-0.039c0.94,0.023,1.874,0.088,2.802,0.243
			c0.938,0.111,1.839,0.306,2.791,0.559l-0.77,0.832l-0.411-0.549c-0.104-0.2-0.36-0.32-0.529-0.488
			c-0.175-0.165-0.379-0.312-0.613-0.429c-0.229-0.121-0.435-0.272-0.681-0.372c-0.939-0.45-2.021-0.762-3.042-0.959l-2.715-0.523
			l2.602-0.754l2.377-0.688l2.412-0.472c0.805-0.149,1.616-0.214,2.423-0.327c0.81-0.117,1.618-0.159,2.431-0.22
			c3.239-0.24,6.481-0.259,9.712-0.156c6.467,0.186,12.879,0.802,19.289,1.711l-1.107,0.563c0.777-1.616,1.556-3.229,2.529-4.8
			c0.521-0.782,1.001-1.562,1.764-2.314c0.166-0.189,0.437-0.376,0.656-0.556c0.305-0.173,0.564-0.367,1.074-0.451
			c0.454-0.114,1.165,0.055,1.532,0.396c0.404,0.353,0.56,0.633,0.709,1.069l0.121,0.353l-0.173,0.34l-2.243,4.43
			c-0.789,1.458-1.406,3-2.337,4.386l-2.728,4.189c-0.461,0.694-0.894,1.407-1.38,2.086l-1.598,1.945l-3.205,3.888l-3.635,3.537
			c-1.162,1.23-2.512,2.27-3.866,3.305c-1.368,1.011-2.61,2.188-4.112,3.032l-4.36,2.712l-4.615,2.308
			c-1.558,0.729-3.197,1.292-4.793,1.945c-1.6,0.652-3.293,1.051-4.935,1.588c-1.651,0.523-3.368,0.808-5.053,1.221
			c-1.703,0.331-3.422,0.591-5.144,0.828c-1.733,0.176-3.463,0.368-5.212,0.414c-1.762,0.084-3.465,0.072-5.33-0.055l0.153,0.01
			l-5.31-0.362l-2.655-0.184c-0.877-0.114-1.747-0.303-2.622-0.45l-5.237-0.952l-5.092-1.5c-1.722-0.442-3.355-1.11-4.982-1.791
			c-1.612-0.705-3.315-1.24-4.852-2.088l-4.674-2.428c-1.519-0.871-2.96-1.856-4.441-2.779c-1.506-0.897-2.872-1.969-4.266-3.005
			c-1.401-1.03-2.796-2.067-4.081-3.223c-1.291-1.146-2.686-2.192-3.883-3.429c-1.214-1.218-2.496-2.377-3.652-3.645
			c-1.146-1.275-2.355-2.498-3.447-3.815c-1.085-1.322-2.227-2.598-3.239-3.973c-2.12-2.696-4.037-5.461-5.827-8.459l-0.901-1.511
			l1.636-0.55l3.28-1.106l1.64-0.544l1.692-0.368c1.129-0.238,2.253-0.504,3.389-0.686l3.438-0.351
			c1.142-0.162,2.295-0.104,3.441-0.128c1.147,0.004,2.295-0.061,3.433,0.069l3.417,0.267l3.375,0.518
			c1.131,0.138,2.224,0.455,3.333,0.682c1.111,0.227,2.208,0.501,3.286,0.841c1.081,0.326,2.171,0.615,3.224,1.015
			c1.055,0.391,2.133,0.716,3.164,1.161C183.742,8.793,187.667,10.696,191.312,13.035z M191.4,13.506
			c-3.873-2.087-7.986-3.783-12.176-5.163c-1.038-0.375-2.118-0.629-3.172-0.95c-1.053-0.33-2.138-0.547-3.209-0.801
			c-1.069-0.271-2.145-0.503-3.233-0.673c-1.086-0.172-2.158-0.437-3.256-0.521l-3.273-0.362l-3.284-0.114
			c-1.092-0.081-2.184,0.033-3.272,0.075c-1.087,0.07-2.182,0.055-3.25,0.26l-3.22,0.467c-1.059,0.216-2.095,0.521-3.146,0.759
			l-1.571,0.379l-1.514,0.549l-3.023,1.098l0.736-2.061c1.711,2.699,3.688,5.414,5.795,7.945c1.014,1.306,2.155,2.515,3.238,3.768
			c1.087,1.247,2.291,2.4,3.431,3.604c1.148,1.196,2.416,2.28,3.616,3.426c1.18,1.168,2.515,2.172,3.769,3.263
			c1.243,1.103,2.587,2.085,3.937,3.062c1.344,0.984,2.659,2.005,4.103,2.847c1.422,0.87,2.804,1.805,4.256,2.623l4.431,2.329
			c1.453,0.827,3.06,1.338,4.581,2.026c1.535,0.663,3.077,1.315,4.702,1.745l4.805,1.478l4.942,0.979
			c0.826,0.155,1.646,0.351,2.478,0.473l2.514,0.213l5.037,0.435l0.154,0.01c1.516,0.125,3.214,0.179,4.842,0.123
			c1.647-0.013,3.289-0.17,4.936-0.308c1.638-0.198,3.28-0.417,4.903-0.704c1.608-0.37,3.254-0.608,4.832-1.081
			c1.572-0.489,3.2-0.832,4.729-1.438c1.53-0.605,3.104-1.117,4.599-1.794l4.436-2.142l4.206-2.536
			c1.448-0.783,2.647-1.901,3.976-2.849c1.311-0.974,2.62-1.95,3.753-3.119l3.546-3.351l3.142-3.71l1.574-1.856
			c0.477-0.649,0.907-1.336,1.363-2.003l2.706-4.028c0.927-1.331,1.547-2.831,2.335-4.238l2.255-4.29l-0.054,0.692
			c0.016,0.022-0.063-0.101-0.012-0.029c0.032,0.05,0.253,0.085,0.262,0.077c0.038-0.037-0.304,0.15-0.54,0.4
			c-0.531,0.497-1.018,1.224-1.485,1.912c-0.917,1.435-1.703,2.996-2.48,4.554l-0.341,0.684l-0.767-0.12
			c-6.274-0.976-12.655-1.671-19.018-1.978c-3.185-0.158-6.371-0.196-9.539-0.018c-0.791,0.045-1.586,0.072-2.367,0.172
			c-0.781,0.094-1.576,0.142-2.349,0.272l-2.315,0.41l-2.244,0.605l-0.111-1.275c1.2,0.253,2.309,0.6,3.398,1.137
			c0.274,0.119,0.529,0.302,0.791,0.45c0.267,0.143,0.515,0.326,0.748,0.542c0.223,0.221,0.501,0.37,0.674,0.655l0.554,0.794
			l0.916,1.308l-1.685-0.476c-0.81-0.228-1.698-0.443-2.577-0.559c-0.88-0.165-1.774-0.242-2.672-0.279
			c-0.894-0.094-1.79-0.071-2.686-0.011l-1.348,0.059c-0.451-0.003-0.884,0.133-1.328,0.192c-0.88,0.165-1.773,0.279-2.643,0.487
			l-2.548,0.847c-0.414,0.162-0.873,0.235-1.252,0.468l-1.181,0.626l-2.365,1.253l-0.29,0.153l-0.223-0.176
			c-2.786-2.194-5.688-4.298-8.741-6.158c-0.744-0.497-1.537-0.91-2.315-1.349c-0.784-0.43-1.549-0.899-2.379-1.237l-1.223-0.553
			c-0.413-0.169-0.805-0.403-1.236-0.52l-2.568-0.764l0.186-0.049c-0.091,0.114-0.213,0.378-0.271,0.583l-0.138,0.7
			c-0.019,0.5,0,1.015,0,1.521v0.308L191.4,13.506z"/>
		<path fill="#3C3C3B" d="M232.597,44.652l-6.404,0.004c-2.123-0.044-4.239-0.431-6.357-0.631c-2.136-0.158-4.192-0.71-6.276-1.122
			l-3.123-0.644c-1.038-0.221-2.049-0.549-3.073-0.818c-2.035-0.591-4.11-1.08-6.117-1.757l-6.011-2.063
			c-2-0.697-3.946-1.53-5.921-2.289c-1.983-0.748-3.925-1.583-5.85-2.458c-1.922-0.877-3.891-1.666-5.776-2.617L172,27.471
			l-5.596-2.949c-1.875-0.969-3.686-2.043-5.532-3.061c-3.67-2.069-7.268-4.254-10.831-6.49c-3.563-2.245-7.076-4.526-10.53-6.968
			l-1.629-1.151l1.86-0.664l3.226-1.153l1.616-0.572l1.672-0.396c1.117-0.252,2.227-0.551,3.351-0.762l3.413-0.443
			c1.136-0.194,2.285-0.168,3.43-0.223c1.146-0.027,2.295-0.123,3.436-0.025l3.432,0.173l3.402,0.425
			c1.142,0.108,2.246,0.395,3.37,0.591c1.125,0.196,2.236,0.448,3.332,0.75c1.1,0.288,2.213,0.542,3.288,0.905
			c1.078,0.355,2.181,0.644,3.237,1.053c1.058,0.401,2.143,0.748,3.182,1.197c1.043,0.437,2.101,0.846,3.12,1.333
			c2.08,0.928,4.062,1.932,6.082,3.123l-2.315,1.322c-0.017-0.595-0.047-1.174-0.028-1.785l0.183-1.009
			c0.01-0.147,0.141-0.397,0.225-0.591l0.149-0.305c0.052-0.105,0.253-0.347,0.402-0.485l0.585-0.541l0.711,0.197l2.873,0.795
			c0.483,0.128,0.884,0.356,1.33,0.531l1.306,0.563c0.894,0.351,1.686,0.816,2.51,1.248c0.814,0.439,1.651,0.858,2.419,1.352
			c3.186,1.867,6.145,3.928,9.078,6.154l-2.085-0.09l2.545-1.414l1.277-0.701c0.412-0.256,0.906-0.354,1.357-0.538l2.772-0.972
			c0.946-0.244,1.92-0.392,2.884-0.587c0.484-0.074,0.959-0.222,1.452-0.231l1.472-0.093c0.978-0.081,1.96-0.121,2.94-0.036
			c0.982,0.028,1.962,0.101,2.935,0.268c1.001,0.125,1.909,0.318,2.997,0.617l-2.318,2.511c-0.103-0.102-0.185-0.206-0.258-0.323
			c-0.032-0.125-0.257-0.222-0.368-0.341c-0.122-0.12-0.268-0.237-0.474-0.334c-0.189-0.1-0.346-0.223-0.559-0.312
			c-0.414-0.188-0.845-0.366-1.315-0.507c-0.446-0.142-0.975-0.271-1.365-0.342l-7.813-1.427l7.485-2.137l2.508-0.716l2.499-0.479
			c0.834-0.155,1.661-0.203,2.495-0.31c0.832-0.11,1.655-0.143,2.479-0.195c3.303-0.203,6.578-0.18,9.831-0.037
			c3.254,0.144,6.499,0.353,9.719,0.727c3.229,0.363,6.417,0.769,9.648,1.318l-1.866,0.957c0.827-1.635,1.654-3.263,2.692-4.864
			c0.562-0.804,1.067-1.596,1.919-2.4c0.183-0.196,0.501-0.412,0.755-0.603c0.368-0.198,0.702-0.412,1.362-0.48
			c0.618-0.092,1.464,0.226,1.827,0.646c0.418,0.435,0.563,0.736,0.715,1.235l0.146,0.477l-0.211,0.41l-1.558,3.03
			c-0.544,0.997-0.984,2.042-1.621,2.992l-1.794,2.901c-0.565,0.982-1.259,1.892-1.931,2.813c-0.678,0.916-1.325,1.85-2.027,2.747
			l-2.21,2.611c-0.712,0.889-1.527,1.694-2.325,2.511c-0.816,0.802-1.553,1.671-2.434,2.41l-2.552,2.29l-2.692,2.136
			c-0.877,0.733-1.85,1.351-2.771,2.029c-0.916,0.687-1.909,1.271-2.873,1.892c-0.953,0.638-1.979,1.169-2.968,1.75
			c-0.982,0.592-2.035,1.072-3.048,1.614c-2.081,0.991-4.189,1.919-6.414,2.614L232.597,44.652z M232.531,44.292
			c2.152-0.723,4.231-1.687,6.26-2.705c0.991-0.557,2.023-1.052,2.985-1.658c0.97-0.592,1.95-1.167,2.872-1.829
			c0.929-0.648,1.885-1.259,2.762-1.971c0.883-0.705,1.818-1.345,2.653-2.1l2.523-2.238l2.372-2.379
			c0.814-0.768,1.488-1.662,2.239-2.484c0.732-0.841,1.48-1.666,2.12-2.572l2.003-2.654c0.629-0.908,1.202-1.853,1.806-2.776
			c0.595-0.927,1.212-1.841,1.703-2.827l1.563-2.899c0.56-0.946,0.922-1.987,1.387-2.975l1.324-2.997l-0.065,0.885
			c0.023,0.076-0.053-0.031,0.035,0.096c0.052,0.084,0.417,0.242,0.576,0.211c0.187-0.03,0.121,0.001,0.089,0.019
			c-0.094,0.103-0.174,0.125-0.293,0.27c-0.46,0.456-0.922,1.198-1.354,1.885c-0.852,1.448-1.582,3.041-2.302,4.625l-0.515,1.138
			l-1.35-0.181c-6.255-0.836-12.633-1.407-18.944-1.645c-3.157-0.116-6.316-0.113-9.418,0.102c-1.56,0.076-3.085,0.282-4.596,0.487
			l-2.225,0.402l-2.114,0.577l-0.328-3.563c0.728,0.138,1.301,0.292,1.932,0.495c0.616,0.193,1.231,0.447,1.839,0.735
			c0.305,0.135,0.608,0.342,0.908,0.516c0.304,0.162,0.599,0.382,0.889,0.643c0.28,0.27,0.59,0.442,0.828,0.808
			c0.25,0.332,0.487,0.675,0.709,1.021l2.435,3.811l-4.753-1.3c-0.674-0.183-1.555-0.399-2.377-0.5
			c-0.832-0.154-1.68-0.223-2.53-0.254c-0.852-0.087-1.703-0.067-2.553-0.009l-1.278,0.055c-0.429-0.005-0.838,0.127-1.259,0.183
			c-0.833,0.16-1.681,0.264-2.503,0.458l-2.409,0.803c-0.394,0.153-0.826,0.217-1.187,0.441l-1.115,0.596l-2.241,1.181l-1.179,0.622
			l-0.905-0.712c-2.721-2.144-5.616-4.24-8.601-6.059c-0.735-0.49-1.508-0.89-2.265-1.319c-0.766-0.418-1.517-0.879-2.307-1.199
			l-1.174-0.53c-0.389-0.161-0.777-0.392-1.172-0.496l-2.355-0.706l1.296-0.343c0.074-0.035,0.172-0.187,0.172-0.178l-0.009,0.046
			c-0.005,0.045-0.042,0.01-0.047,0.122c-0.023,0.166-0.056,0.328-0.096,0.492c-0.007,0.403,0.011,0.842,0.003,1.263l-0.049,2.7
			l-2.268-1.377c-1.768-1.077-3.729-2.114-5.691-3.02c-0.976-0.481-1.985-0.888-2.984-1.323c-0.993-0.447-2.03-0.792-3.044-1.193
			c-1.012-0.41-2.068-0.699-3.1-1.057c-1.031-0.365-2.094-0.62-3.146-0.912c-1.049-0.307-2.111-0.563-3.187-0.764
			c-1.073-0.201-2.132-0.496-3.22-0.61l-3.245-0.453l-3.268-0.208c-1.091-0.112-2.18-0.031-3.27-0.02
			c-1.088,0.039-2.187-0.007-3.262,0.167l-3.244,0.374c-1.07,0.187-2.122,0.458-3.184,0.681l-1.592,0.351l-1.537,0.524l-3.077,1.048
			l0.23-1.815c3.34,2.433,6.821,4.766,10.316,7.038c3.5,2.275,7.058,4.472,10.651,6.612c1.809,1.052,3.581,2.163,5.419,3.168
			l5.489,3.059l5.581,2.901c1.842,1.003,3.768,1.845,5.65,2.776c1.885,0.929,3.79,1.817,5.731,2.622
			c1.941,0.81,3.846,1.713,5.82,2.447l5.932,2.183c1.983,0.718,4.032,1.246,6.046,1.879c2.011,0.662,4.066,1.146,6.146,1.546
			c2.074,0.411,4.126,0.961,6.241,1.118c2.105,0.198,4.189,0.585,6.311,0.628L232.531,44.292z"/>
		<path fill="#3C3C3B" d="M255.245,29.858c1.55-1.625,3.04-3.3,4.407-5.071c0.715-0.873,1.393-1.77,2.036-2.693
			c0.646-0.92,1.346-1.804,1.921-2.767l1.801-2.833l1.6-2.937c0.562-0.966,1.042-1.965,1.457-2.994l1.327-3.042l-0.023,0.423
			c-0.023-0.068-0.117-0.222-0.154-0.234c-0.054-0.038,0.012-0.002-0.023,0.004c-0.08-0.002-0.421,0.227-0.667,0.501
			c-0.54,0.551-0.991,1.308-1.436,2.026c-0.859,1.489-1.575,3.089-2.281,4.684l-0.278,0.625l-0.737-0.099
			c-6.301-0.843-12.691-1.413-19.047-1.565c-3.18-0.085-6.355-0.049-9.487,0.2c-0.784,0.063-1.569,0.106-2.337,0.224
			c-0.768,0.111-1.554,0.176-2.307,0.322l-2.255,0.454l-2.146,0.635l-0.216-2.735c0.671,0.129,1.234,0.284,1.843,0.465
			c0.595,0.183,1.188,0.403,1.778,0.674c0.294,0.109,0.589,0.303,0.884,0.463c0.293,0.161,0.585,0.328,0.87,0.583
			c0.276,0.251,0.575,0.426,0.825,0.757c0.251,0.327,0.489,0.671,0.705,1.02l1.899,3.025l-3.886-0.949
			c-0.709-0.173-1.598-0.367-2.433-0.449c-0.845-0.135-1.701-0.185-2.562-0.196c-0.855-0.066-1.712-0.021-2.563,0.062l-1.276,0.091
			c-0.432,0.006-0.838,0.151-1.259,0.219c-0.828,0.183-1.671,0.311-2.484,0.528l-2.381,0.853c-0.388,0.16-0.814,0.231-1.168,0.462
			l-1.097,0.616l-2.194,1.214l0.285-2.836c1.375,1.292,2.688,2.64,4.033,3.956l-3.294,1.032c0.178-1.012,0.351-1.903,0.741-2.997
			c0.114-0.288,0.204-0.549,0.461-0.958c0.049-0.082,0.122-0.192,0.248-0.335c0.149-0.152,0.141-0.2,0.438-0.417
			c0.311-0.186,0.416-0.317,0.955-0.418c0.235-0.043,0.488-0.05,0.722-0.023l0.09,0.011c0.118,0.03-0.152-0.047,0.289,0.071
			l0.021,0.008l0.042,0.016l0.667,0.246l0.835,0.412c1.06,0.561,1.729,1.02,2.566,1.519l2.374,1.434
			c3.169,1.842,6.468,3.44,9.938,4.617c0.863,0.306,1.725,0.625,2.615,0.851c0.885,0.244,1.76,0.538,2.667,0.695
			c0.905,0.169,1.801,0.417,2.718,0.526l2.76,0.352l2.787,0.151c0.933,0.098,1.863-0.005,2.804-0.008
			C251.53,30.346,253.364,30.01,255.245,29.858z M255.44,30.188l-2.83,0.734c-0.927,0.262-1.879,0.394-2.832,0.532
			c-0.957,0.121-1.911,0.341-2.88,0.361c-0.964,0.062-1.937,0.124-2.91,0.15l-2.921-0.116c-0.976-0.032-1.938-0.206-2.912-0.304
			c-0.979-0.085-1.928-0.309-2.89-0.486c-0.966-0.167-1.915-0.404-2.854-0.672c-3.759-1.065-7.36-2.592-10.783-4.354l-4.858-2.605
			l-0.416-0.234l-0.667-0.237l-0.042-0.014l-0.021-0.008l0.272,0.071l0.062,0.012c0.177,0.031,0.367,0.028,0.546-0.009
			c0.412-0.12,0.439-0.131,0.644-0.272c0.187-0.167,0.129-0.1,0.193-0.174c0.045-0.059,0.052-0.075,0.047-0.056
			c0.005-0.023-0.07,0.146-0.116,0.283c-0.221,0.625-0.403,1.524-0.52,2.302l-0.557,3.69l-2.737-2.659
			c-1.352-1.312-2.736-2.592-4.061-3.93l-1.74-1.757l2.025-1.08l2.59-1.38l1.298-0.681c0.419-0.25,0.917-0.341,1.376-0.518
			l2.8-0.922c0.957-0.222,1.937-0.345,2.902-0.517c0.487-0.062,0.964-0.199,1.455-0.196l1.47-0.057
			c0.978-0.057,1.955-0.072,2.928,0.033c0.979,0.049,1.946,0.141,2.91,0.328c0.982,0.143,1.885,0.357,2.938,0.667l-1.987,2.076
			c-0.094-0.106-0.169-0.215-0.234-0.341c-0.057-0.127-0.27-0.242-0.388-0.373c-0.117-0.136-0.312-0.253-0.511-0.367
			c-0.196-0.112-0.36-0.25-0.594-0.343c-0.431-0.217-0.89-0.406-1.371-0.574c-0.473-0.163-1.001-0.313-1.441-0.414l-5.655-1.285
			l5.44-1.449l2.473-0.659l2.473-0.429c0.823-0.135,1.647-0.183,2.465-0.277c0.824-0.102,1.643-0.125,2.461-0.168
			c3.275-0.169,6.526-0.115,9.764,0.061c6.479,0.337,12.877,1.079,19.261,2.121l-1.011,0.526c0.79-1.611,1.586-3.218,2.563-4.773
			c0.524-0.77,1.011-1.543,1.754-2.259c0.387-0.339,0.763-0.755,1.609-0.894c0.417-0.071,0.964,0.12,1.225,0.41
			c0.292,0.292,0.418,0.542,0.526,0.892l0.072,0.227l-0.097,0.196l-1.483,3.067c-0.468,1.034-0.998,2.035-1.608,2.997l-1.745,2.922
			l-1.937,2.804c-0.623,0.949-1.363,1.818-2.052,2.723c-0.686,0.907-1.405,1.787-2.164,2.639c-1.454,1.744-3.04,3.397-4.678,4.986
			L255.44,30.188z"/>
		<path fill="#3C3C3B" d="M255.324,29.792c1.039-1.157,2.156-2.261,3.06-3.505l2.876-3.675l0.684,0.51
			c-1.459,1.464-3.125,2.614-4.907,3.625c-0.887,0.507-1.815,0.953-2.765,1.346c-0.947,0.41-1.925,0.741-2.919,1.037
			c-0.988,0.303-2.012,0.508-3.027,0.717c-1.031,0.125-2.058,0.353-3.102,0.368c-1.043,0.067-2.086,0.129-3.13,0.049
			c-1.045-0.015-2.087-0.096-3.115-0.261c-1.039-0.108-2.063-0.284-3.072-0.539l-1.521-0.34c-0.646-0.157-1.002-0.317-1.517-0.476
			l-2.863-0.958l-2.882-1.372c-1.001-0.419-1.796-1.085-2.698-1.627c-0.913-0.529-1.678-1.252-2.49-1.918
			c-0.835-0.643-1.491-1.48-2.23-2.234c-0.669-0.851-1.294-1.617-1.859-2.716l1.618,0.838c-0.629,0.125-1.352,0.384-2.038,0.594
			c-0.691,0.213-1.343,0.562-2.016,0.832c-0.332,0.15-0.679,0.271-0.994,0.445l-0.929,0.561l-1.851,1.106l0.194-2.51l4.305,3.729
			l-3.094,0.996c0.155-0.99,0.317-1.872,0.665-2.95c0.099-0.276,0.188-0.558,0.463-1.01c0.115-0.157,0.159-0.241,0.355-0.441
			c0.136-0.13,0.295-0.249,0.462-0.348c0.088-0.051,0.153-0.09,0.266-0.137c0.167-0.062,0.356-0.111,0.555-0.132
			c0.377-0.055,0.861,0.037,1.055,0.13l0.082,0.032l0.164,0.066c0.412,0.149,0.917,0.393,1.437,0.666
			c0.984,0.522,1.737,0.938,2.556,1.428l2.397,1.385c1.601,0.887,3.23,1.705,4.88,2.471c1.645,0.773,3.331,1.468,5.061,2.032
			c0.86,0.298,1.718,0.61,2.607,0.824c0.882,0.226,1.754,0.517,2.659,0.661c0.898,0.169,1.79,0.418,2.702,0.541L244.151,30
			l2.78,0.146c0.931,0.077,1.856,0.008,2.797,0.015c0.936-0.005,1.881-0.004,2.814-0.13L255.324,29.792z M255.525,30.121
			l-2.825,0.797c-0.922,0.28-1.872,0.437-2.826,0.597c-0.955,0.144-1.909,0.396-2.882,0.411l-2.924,0.182l-2.936-0.051
			c-0.982-0.021-1.953-0.162-2.936-0.246c-0.987-0.081-1.939-0.312-2.91-0.479c-0.976-0.157-1.923-0.413-2.873-0.66
			c-1.903-0.499-3.756-1.151-5.566-1.879c-1.829-0.705-3.552-1.604-5.266-2.488l-2.508-1.386l-2.336-1.362
			c-0.305-0.179-0.633-0.371-1.107-0.559l-0.161-0.07l-0.082-0.036c0.141,0.063,0.562,0.182,0.882,0.124
			c0.169-0.021,0.328-0.067,0.464-0.127l0.195-0.087c0.12-0.063,0.232-0.148,0.324-0.242c0.111-0.12,0.098-0.102,0.142-0.169
			c0.035-0.062-0.049,0.081-0.101,0.234c-0.238,0.648-0.441,1.553-0.612,2.35l-0.697,3.28l-2.395-2.285l-4.112-3.922l-1.61-1.535
			l1.806-0.975l2.192-1.185l1.097-0.585c0.37-0.182,0.772-0.305,1.156-0.46c0.783-0.277,1.534-0.622,2.344-0.835
			c0.821-0.208,1.578-0.455,2.493-0.604l1.144-0.188l0.475,1.026c0.303,0.651,0.866,1.455,1.388,2.163
			c0.62,0.671,1.149,1.427,1.873,2.021c0.702,0.613,1.348,1.29,2.157,1.792c0.786,0.508,1.507,1.168,2.36,1.549l2.488,1.32
			l2.824,1.06c0.439,0.155,1.01,0.403,1.343,0.48l1.417,0.37c0.94,0.277,1.898,0.476,2.867,0.611
			c0.962,0.193,1.933,0.303,2.91,0.352c0.976,0.108,1.95,0.097,2.933,0.083c0.983,0.037,1.949-0.136,2.93-0.203
			c0.963-0.151,1.939-0.297,2.886-0.537c0.954-0.233,1.898-0.502,2.816-0.847c0.922-0.33,1.829-0.71,2.7-1.154
			c1.737-0.87,3.438-1.934,4.837-3.204l0.683,0.51l-3.13,3.604c-1.001,1.235-2.185,2.286-3.298,3.412L255.525,30.121z"/>
		<g>
			<path fill="#3C3C3B" d="M178.987,19.971c0.008,0.013-0.173-0.03-0.401,0.038c-0.229,0.041-0.57,0.3-0.792,0.686
				c-0.117,0.181-0.201,0.404-0.2,0.516c0.029,0.042,0.021,0.104,0.115-0.012c0.014-0.022,0.022-0.046,0.024-0.073l0.001-0.018
				l-0.039-0.277l0.007,0.011l0.026,0.045c0.035,0.055,0.074,0.132,0.107,0.169c-0.113-0.542-0.085-0.33,0.204-0.35l0.821,0.085
				c0.323,0.007,0.903,0.206,1.128,0.231c0.028,0.003,0.327,0.091-0.13-0.125c-0.339-0.141-0.686-0.073-0.996,0.002
				c-0.79,0.349-0.786,0.626-0.881,0.755c-0.037,0.116,0.048-0.043,0.144-0.225c0.06-0.077,0.14-0.209,0.229-0.309l0.016-0.019
				c-0.002-0.05,0.034,0.421,0.02,0.22l0.001-0.002l0.002-0.007l0.007-0.011l0.023-0.048l0.064-0.096l0.128-0.187
				c0.188-0.343,0.345-0.179,0.485-0.38c0.115-0.139,0.098-0.267,0.083-0.398c-0.077-0.159-0.225-0.214-0.216-0.221H178.987z
				 M178.969,19.611c0,0,0.211,0.003,0.581,0.009c0.163,0.056,0.44,0.097,0.744,0.257c0.281,0.125,0.713,0.621,0.91,0.725
				l0.178,0.143l0.09,0.073l0.038,0.04l0.009,0.01l0.004,0.004l0.002,0.002c-0.015-0.199,0.021,0.273,0.02,0.227l0.015,0.023
				c0.084,0.137,0.173,0.248,0.218,0.42c0.08,0.317,0.124,0.687-0.076,1.326c-0.208,0.375-0.325,0.924-1.398,1.386
				c-0.426,0.183-0.942,0.153-1.422,0.028c-0.615-0.202-0.435-0.217-0.54-0.277c-0.287-0.274-0.251-0.333-0.51-0.508l-0.872-0.54
				c-0.267-0.234-0.743-0.342-1.219-1.306c-0.015-0.088-0.012-0.144-0.019-0.215l-0.003-0.051l-0.001-0.014l-0.039-0.276
				l0.001-0.007l0.003-0.017l0.015-0.067l0.077-0.263c0.125-0.389,0.321-0.51,0.509-0.667c0.358-0.249,0.697-0.288,0.982-0.312
				c0.585-0.018,0.971,0.001,1.261-0.065c0.288-0.067,0.425-0.089,0.424-0.089H178.969z"/>
			<path fill="#3C3C3B" d="M195.34,22.436c0,0-0.006-0.036-0.008-0.103c-0.017-0.06,0.021-0.183-0.049-0.271
				c-0.061-0.202-0.374-0.47-0.805-0.619c-0.216-0.078-0.444-0.125-0.617-0.167c-0.047,0.032-0.197-0.023-0.084,0.063
				c0.027,0.018,0.061,0.03,0.093,0.036l0.048,0.003c-0.311,0.051,0.425-0.069,0.345-0.056v0.001l-0.007,0.003l-0.012,0.007
				l-0.022,0.014c-0.047,0.017-0.221,0.136,0.145-0.007c0.117-0.061,0.216-0.162,0.271-0.26c0.049-0.096,0.033-0.021,0.051-0.042
				c0.023,0.016,0.033-0.032,0.049,0.026l0.087,0.271l0.229,0.79l0.066,0.251l0.009,0.031v0.004c0.007,0.063-0.052-0.535-0.028-0.28
				l0.005,0.007l0.005,0.012l0.028,0.05l0.049,0.101c0.051,0.078,0.166,0.434,0.18,0.102c-0.098-0.483-0.11-0.422,0.052-0.373
				l0.11,0.076l0.024,0.019c-0.121-0.065-0.005-0.004-0.022-0.009l0.079,0.065l0.141,0.118c-0.012,0.006-0.03,0.024-0.044,0.042
				c-0.061,0.043-0.11,0.073-0.446,0.169c-0.459,0.027-0.988,0.738-0.866,0.957c0.159,0.323,0.426,0.016,0.549-0.121
				c0.146-0.18,0.223-0.35,0.276-0.491c0.105-0.28,0.117-0.444,0.117-0.444L195.34,22.436z M195.714,22.412
				c0.012,0,0.01,0.126,0.2,0.343c0.09,0.108,0.226,0.238,0.422,0.405c0.171,0.208,0.508,0.305,0.556,1.049
				c0.06,0.431-0.668,1.31-1.374,1.351c-0.583,0.104-0.875,0.063-1.178,0.017c-0.133-0.032-0.269-0.063-0.403-0.11l-0.212-0.068
				l-0.098-0.031c-0.049-0.021,0.035,0.025-0.117-0.059l-0.061-0.035l-0.24-0.142c-0.303-0.252-0.784-0.55-1.151-1.544
				c-0.189-0.554-0.059-0.505-0.077-0.702l0.01-0.111l0.007-0.056l0.002-0.014v-0.007l-0.027-0.287v-0.002l0.007-0.022l0.058-0.179
				l0.192-0.926c0.032-0.161,0.086-0.368,0.149-0.568c0.019-0.082,0.092-0.259,0.145-0.375c0.042-0.085,0.033-0.082,0.121-0.233
				c0.099-0.154,0.239-0.31,0.396-0.427c0.423-0.281,0.402-0.182,0.481-0.209l0.405-0.062l0.146,0.029
				c0.099,0.022,0.197,0.051,0.289,0.085c0.379,0.146,0.43,0.281,0.603,0.437c0.225,0.278,0.323,0.58,0.389,0.838
				c0.104,0.545,0.154,0.915,0.25,1.197c0.067,0.252,0.11,0.396,0.11,0.396V22.412z"/>
			<path fill="#3C3C3B" d="M196.481,31.678c0,0-0.038,0.007-0.108,0.021c-0.111,0.022-0.061,0.027-0.111,0.106
				c-0.095,0.189,0.026,0.563,0.289,0.973c0.06,0.108,0.131,0.214,0.186,0.336l0.086,0.19l0.021,0.049l0.002,0.012
				c-0.015-0.233,0-0.06-0.002-0.109l0.012,0.022l0.046,0.088c0.068,0.118,0.122,0.24,0.169,0.366
				c0.075-0.005,0.117-0.04,0.124-0.056c0.017-0.017,0.058-0.082,0.035-0.096c-0.004-0.042-0.122-0.17-0.225-0.149
				c0.339-0.056,0.746-0.086,0.867-0.162c0.099-0.035,0.087-0.093,0.015-0.103c-0.112,0.002-0.189,0.026-0.318,0.089
				c-0.203,0.08-0.377,0.291-0.475,0.444c-0.057,0.07-0.104,0.155-0.134,0.244l-0.034,0.135l-0.01,0.068l-0.005,0.034V34.2
				c0.061,0.642,0.015,0.175,0.028,0.318v-0.003l-0.11-0.196c-0.082-0.231-0.104,0.042-0.096,0.049
				c0.07,0.104-0.023-0.023-0.042-0.106c-0.033-0.086-0.047-0.173-0.074-0.28c-0.036-0.216,0.002-0.487,0.022-0.752
				c0.085-0.563,0.087-1.064-0.032-1.273c-0.103-0.252-0.174-0.236-0.183-0.27L196.481,31.678z M196.425,31.326
				c-0.028-0.001,0.247,0.008,0.57,0.07c0.323,0.075,0.903,0.065,1.591,0.163c0.339,0.051,0.676,0.159,0.964,0.34
				c0.141,0.085,0.262,0.222,0.383,0.354c0.134,0.14,0.207,0.23,0.394,0.586c0.115,0.26,0.286,0.76,0.238,0.814l-0.009,0.218
				l0.03,0.33l-0.002,0.029l-0.01,0.061l-0.023,0.119l-0.061,0.24c-0.047,0.16-0.107,0.314-0.183,0.456
				c-0.15,0.283-0.458,0.583-0.754,0.775c-0.252,0.141-0.481,0.209-0.729,0.273c-0.37,0.055-0.684,0.04-0.895,0
				c-0.49-0.063-0.691-0.167-0.954-0.241c-0.884-0.134-1.375-0.631-1.628-1.115c-0.119-0.263-0.201-0.538-0.248-0.781
				c0.01-0.136,0.023-0.268,0.052-0.399l0.019-0.097l0.005-0.023c-0.005-0.057,0.009,0.109-0.005-0.131l0.003-0.011l0.016-0.042
				l0.085-0.171c0.058-0.12,0.114-0.236,0.168-0.346c0.247-0.462,0.393-0.838,0.52-1.12c0.069-0.137,0.262-0.319,0.304-0.301
				c0.065-0.025,0.101-0.041,0.101-0.041L196.425,31.326z"/>
			<path fill="#3C3C3B" d="M211.156,27.38c0,0-0.117,0.128-0.278,0.383c-0.163,0.239-0.311,0.714-0.246,1.17
				c0.083,0.179,0.169,0.374,0.263,0.58c0.117,0.345,0.183,0.424,0.322,0.708c0.124,0.234,0.286,0.483,0.427,0.595
				c0.03,0.015,0.063,0.045,0.079,0.047c-0.005-0.056-0.037-0.109-0.079-0.142c-0.09-0.089-0.229-0.173-0.379-0.21
				c-0.075-0.019-0.15-0.029-0.22-0.029h-0.029l-0.399,0.049l0.016-0.008l0.028-0.017c0.048-0.033,0.27-0.112,0.026-0.087
				c-0.124-0.013-0.33,0.14-0.325,0.114l0.021-0.118c0.021-0.077,0.045-0.21,0.059-0.311c0.024-0.196,0.047-0.389,0.065-0.577
				c0.047-0.087,0.005-0.054,0.047,0.028c0.01,0.068,0.005-0.125,0.023,0.159l0.005-0.057c0.002-0.021,0.005-0.116,0.01-0.075
				c0.007,0.043,0.072,0.153,0.069,0.083c0.078-0.138,0.174-0.418,0.268-0.684c0.213-0.554,0.313-1.1,0.222-1.343
				c-0.019-0.144-0.096-0.199-0.03-0.201C211.166,27.405,211.161,27.384,211.156,27.38z M210.837,27.19
				c0.007,0.02,0.034-0.128,0.25-0.168c0.233-0.019,0.373,0.079,0.563,0.146c0.343,0.184,0.933,0.353,1.623,0.706
				c0.325,0.19,0.657,0.417,0.902,0.838c0.05,0.067,0.139,0.324,0.179,0.513l0.036,0.149l0.015,0.056l0.008,0.272
				c0.012,0.385-0.083,0.727-0.152,0.94c-0.181,0.502-0.461,0.85-0.786,1.198l-0.54,0.517l-0.322,0.266
				c-0.115,0.101-0.474,0.344-0.73,0.443c-0.37,0.155-0.335,0.095-0.451,0.121l-0.508,0.046c-0.115-0.014-0.231-0.039-0.347-0.074
				c-0.231-0.066-0.453-0.18-0.624-0.3c-0.164-0.159-0.316-0.335-0.438-0.516c-0.074-0.139-0.121-0.259-0.177-0.389
				c-0.176-0.484-0.218-0.868-0.248-1.249c-0.015-0.334-0.054-0.863,0.042-1.102c0.07-0.413,0.22-0.697,0.463-1.037
				c0.492-0.473,0.842-0.707,1.006-0.969C210.769,27.35,210.837,27.19,210.837,27.19z"/>
			<path fill="#3C3C3B" d="M226.66,36.369c-0.02,0.015,0.033-0.187-0.07-0.382c-0.065-0.201-0.435-0.463-0.886-0.502
				c-0.199-0.026-0.501-0.02-0.457,0.086l0.028,0.024h0.003c-0.05,0.006,0.441-0.054,0.231-0.027l-0.003,0.001l-0.012,0.006
				l-0.022,0.014l-0.048,0.025c0.01,0.008-0.158,0.047,0,0.03c0.117-0.018,0.244-0.082,0.33-0.168
				c0.213-0.224,0.162-0.164,0.203-0.117c0.068,0.235,0.137,0.476,0.206,0.722l0.057,0.251v0.008
				c0.019,0.191-0.02-0.254-0.017-0.208l0.002,0.003l0.005,0.013l0.015,0.027l0.023,0.053l0.049,0.106
				c0.07,0.196,0.128-0.022,0.133-0.014c0.146,0.073,0.337,0.235,0.553,0.326c0.223,0.095,0.416,0.175,0.519,0.241
				c0.021,0.033,0.047,0.011-0.064,0.015c-0.169-0.071-0.37-0.098-0.543-0.074l-0.033,0.005l-0.426,0.046h0.007l0.026,0.002
				l0.056,0.007c-0.229-0.008-0.907,0.419-0.978,0.627c-0.379,0.738-0.092,0.667-0.061,0.679c0.072-0.009,0.195-0.112,0.275-0.206
				c0.397-0.419,0.695-0.908,0.774-1.187c0.109-0.294,0.121-0.46,0.121-0.46L226.66,36.369z M227.034,36.343
				c0.013-0.001,0.009,0.139,0.197,0.37c0.148,0.247,0.61,0.499,1.129,0.981c0.11,0.131,0.26,0.266,0.33,0.501
				c0.028,0.252,0.316,0.451-0.22,1.41c-0.112,0.257-0.85,0.725-1.137,0.751l-0.047,0.025l-0.023,0.013l-0.005,0.002l-0.423,0.044
				l-0.014-0.001l-0.06-0.001c-0.308-0.013-0.646-0.079-0.949-0.191c-0.355-0.133-0.585-0.304-0.792-0.45
				c-0.702-0.63-0.921-1.31-1.281-2.168c-0.104-0.274-0.24-0.749-0.212-0.854l0.003-0.115l0.004-0.057v-0.029V36.56l-0.02-0.219
				l0.003-0.006l0.05-0.197c0.065-0.288,0.107-0.609,0.22-1.029c0.084-0.231,0.093-0.457,0.479-0.897
				c0.139-0.134,0.316-0.245,0.485-0.31c0.203-0.075,0.117-0.022,0.191-0.039l0.054,0.001l0.028,0.002l0.012,0.001l0.243-0.028
				l0.014,0.004l0.232,0.06c0.584,0.198,0.713,0.514,0.883,0.766c0.277,0.545,0.372,0.928,0.494,1.225
				c0.114,0.292,0.119,0.415,0.131,0.423V36.343z"/>
		</g>
	</g>
</g>
<g>
	<path fill="#3C3C3B" d="M64.097,100.254c-1.099,5.091-2.803,9.867-5.002,14.328c-2.308,4.618-5.112,8.921-8.41,12.804
		c-0.934,1.156-1.924,2.257-2.968,3.308l-0.495,0.525l0.77,0.156c0.275,0.055,0.549,0.156,0.825,0.211
		c1.429,0.314,2.693,0.629,3.793,0.995c0.385,0.107,0.604,0.21,0.77,0.317c0.165,0.052,0.22,0.156,0.275,0.211
		c0,0.102,0,0.209-0.055,0.313c0,0,0,0.053-0.055,0.106c-0.054,0-0.109,0-0.165,0c-0.22,0-0.44-0.054-0.715-0.106
		c-0.11-0.053-0.22-0.104-0.33-0.104c-1.1-0.264-2.145-0.473-3.023-0.63c-0.879-0.159-1.869-0.263-2.914-0.419h-0.22l-0.165,0.156
		c-0.825,0.734-1.869,1.679-3.134,2.781c-1.264,1.102-2.364,2.047-3.408,2.834c-4.068,3.097-8.465,5.825-13.248,8.134
		c-2.364,1.208-4.728,2.203-7.146,3.148c-0.495,0.159-0.989,0.369-1.484,0.525l-0.275,0.105v0.314c0,0.735,0.055,1.522,0.055,2.309
		c0.274,11.074,0.659,20.887,1.044,29.389l0.109,3.464v0.158c0.165,3.62,0.33,7.349,0.495,11.073
		c0.055,2.573,0.11,5.037,0.165,7.452c0,0.734-0.055,1.363-0.055,1.889c0,0.684-0.055,1.364-0.11,1.994
		c-0.055,0.21-0.11,0.42-0.166,0.63c0,0.159-0.054,0.264-0.109,0.474c-0.055,0.104-0.11,0.21-0.165,0.314
		c-0.055,0.157-0.22,0.314-0.384,0.525c-0.166,0.156-0.386,0.315-0.605,0.42c-0.275,0.104-0.55,0.209-0.88,0.209
		c-0.055,0-0.11,0-0.165-0.053c-0.33,0-0.55-0.052-0.77-0.156c-0.165-0.104-0.33-0.21-0.385-0.264h-0.055
		c-0.165-0.156-0.274-0.262-0.33-0.367l-0.109-0.157c-0.11-0.157-0.22-0.315-0.33-0.472h-0.055c-0.44-0.788-0.77-1.418-0.989-1.994
		c-0.935-2.572-1.594-5.092-1.979-7.452c-0.385-2.205-0.77-4.672-1.044-7.452c-0.495-4.357-0.879-9.29-1.099-14.799
		c-0.33-7.978-0.385-16.219-0.165-24.771l0.055-0.473l-0.494,0.053c-0.11,0-0.275,0-0.385,0c-0.604,0-1.155-0.053-1.649-0.264
		c-1.044-0.315-1.814-0.996-2.364-1.94c-0.44-0.734-0.604-1.629-0.604-2.572c0-1.312,0.385-2.729,1.209-4.199
		c0.604-1.154,1.429-2.255,2.419-3.357c0.714-0.788,1.539-1.521,2.474-2.257l0.11-0.104v-0.209
		c0.495-6.667,1.154-13.016,2.034-19.001c0.44-2.885,0.88-5.613,1.375-8.133v-0.053c0.165-5.721,0.385-11.179,0.714-16.479
		c0.33-5.091,0.715-10.024,1.209-14.747c0.495-5.196,1.1-10.077,1.814-14.695c0.055-0.42,0.275-0.734,0.605-0.997
		c0.274-0.314,0.66-0.42,1.099-0.42c0.055,0,0.166,0,0.22,0c0.495,0.105,0.879,0.314,1.154,0.629
		c0.274,0.368,0.385,0.788,0.33,1.208v0.052c-0.604,4.146-1.209,9.026-1.813,14.537s-1.1,10.916-1.429,16.217l-0.165,2.571
		l0.99-2.362c3.573-7.977,8.355-14.589,14.457-19.89c6.102-5.3,11.983-7.925,17.645-7.925c3.244,0,6.102,0.945,8.576,2.886
		c1.979,1.522,3.573,3.779,4.837,6.719c0.934,2.255,1.539,4.827,1.814,7.661c0.22,2.414,0.165,4.986-0.11,7.714
		C65.087,95.322,64.647,97.788,64.097,100.254z M9.732,140.665l-0.879,1.26c-1.32,2.255-1.869,4.094-1.649,5.563
		c0,0.473,0.109,0.787,0.22,0.996c0.055,0.105,0.165,0.211,0.219,0.264c0.055,0.052,0.166,0.105,0.22,0.105h0.055
		c0.11,0.052,0.275,0.052,0.44,0.052c0.165,0,0.385,0,0.604-0.052h0.11l0.33-0.054v-0.366v-0.314v-0.316l0.055-1.102
		c0.054-0.734,0.109-1.575,0.109-2.415c0.055-0.839,0.055-1.521,0.11-2.099L9.732,140.665z M16.164,205.057l-0.11-1.835
		c0-0.315-0.275-3.254-0.715-8.816c-0.165-2.204-0.33-4.147-0.494-5.878c-0.11-1.732-0.165-2.678-0.22-2.834l-0.11-3.568
		c-0.11-1.629-0.22-4.304-0.44-8.136c-0.165-4.039-0.385-8.187-0.604-12.491c-0.165-4.248-0.33-7.347-0.385-9.34
		c0-0.156-0.055-0.262-0.165-0.367c-0.11-0.104-0.22-0.159-0.44-0.159c-0.11,0-0.22,0.056-0.44,0.105
		c-0.165,0.054-0.33,0.105-0.44,0.21c-0.165,0.105-0.22,0.264-0.274,0.42c-0.165,2.834-0.165,7.138,0,12.858
		c0.054,3.568,0.109,7.504,0.165,11.808c0.055,4.303,0.44,9.236,1.154,14.799c0.66,5.512,1.54,9.396,2.584,11.6L16.164,205.057z
		 M11.272,142.081c0,0.895,0,1.943,0,3.044c0,1.104,0,2.049,0,2.835l0.055,0.578l0.549-0.21l0.825-0.265l0.275-0.104v-0.315
		l-0.165-7.818v-0.684l-0.66,0.314c-0.055,0.054-0.11,0.105-0.22,0.159c-0.11,0.105-0.22,0.21-0.33,0.314
		c-0.165,0.156-0.22,0.315-0.274,0.472C11.272,140.611,11.272,141.138,11.272,142.081z M11.327,136.938l0.879-0.84l0.495-0.471
		l0.11-0.105v-0.157l0.33-8.082l-0.88-0.052l-0.825,8.553L11.327,136.938z M61.569,85.403c-0.22-2.466-0.77-4.67-1.54-6.612
		c-0.935-2.204-2.198-3.988-3.793-5.353c-1.704-1.417-3.627-2.256-5.881-2.571c-0.55-0.053-1.154-0.105-1.704-0.105
		c-1.594,0-3.298,0.263-5.002,0.84c-2.145,0.683-4.233,1.732-6.322,3.149c-0.934,0.683-1.923,1.364-2.858,2.203
		c-0.825,0.683-1.705,1.523-2.639,2.467c-3.133,3.15-5.992,7.033-8.63,11.599c-0.989,1.784-1.924,3.936-2.803,6.507
		c-0.715,2.099-1.374,4.408-1.979,6.928c-0.44,1.784-0.825,3.621-1.21,5.51v0.054c-0.11,4.198-0.165,8.606-0.22,13.171
		c0,3.148,0,6.402,0.055,9.71v0.63l0.604-0.21c1.155-0.473,2.419-0.893,3.683-1.26c4.232-1.156,8.96-1.786,14.292-1.786
		c0.439,0,0.934,0,1.429,0.054c1.429,0,2.748,0.053,3.958,0.156c0.494,0.054,0.934,0.054,1.429,0.107h0.22l0.11-0.107
		c1.814-1.73,3.463-3.462,5.002-5.3c3.078-3.728,5.717-7.767,7.86-12.124c2.034-4.25,3.628-8.763,4.672-13.591
		c0.495-2.309,0.879-4.671,1.155-7.032C61.734,89.917,61.79,87.554,61.569,85.403z M41.78,131.795l-1.1-0.053
		c-0.055,0-0.11,0-0.165,0s-0.055,0-0.109,0c-0.715-0.156-2.199-0.262-4.343-0.262c-2.528,0-5.497,0.314-8.85,0.945
		c-3.354,0.684-6.707,1.941-9.95,3.883l-0.22,0.105v0.264c0.055,2.518,0.11,5.562,0.165,9.077v0.63l0.604-0.21
		c2.254-0.891,4.563-1.89,6.762-3.044c4.507-2.255,8.74-4.879,12.588-7.871c0.11-0.105,0.33-0.211,0.604-0.42
		c0.22-0.211,0.55-0.421,0.825-0.631c0.495-0.365,0.99-0.681,1.429-0.998c0.439-0.313,0.715-0.576,0.935-0.732L41.78,131.795z"/>
	<path fill="#3C3C3B" d="M52.114,169.896c3.683-3.2,6.211-5.772,7.531-7.714c0.44,0.105,0.66,0.211,0.714,0.262
		c0,0.105,0.055,0.159,0.055,0.265c0,0.05,0,0.155,0,0.209c0,0.052,0,0.052,0,0.052c-0.77,1.418-2.583,3.778-5.552,7.085
		c-2.968,3.359-6.267,5.72-9.785,7.189c-0.549,0.263-1.044,0.474-1.649,0.683c-0.55,0.157-1.1,0.262-1.704,0.366
		c-1.154,0.21-2.363,0.105-3.518-0.209c-1.154-0.366-1.979-0.996-2.583-1.891c-0.55-0.839-0.99-1.73-1.21-2.674
		c-0.22-0.944-0.33-1.89-0.33-2.834c0.055-0.945,0.055-1.891,0.165-2.834l0.165-2.784c0-0.209,0-0.419,0.055-0.575
		c0.055-0.788,0.055-1.469,0-2.204c-0.055-0.21-0.11-0.368-0.165-0.524c-0.055-0.054-0.11-0.105-0.165-0.159c0,0-0.11,0-0.165,0
		c-0.166,0-0.385,0.054-0.66,0.159l-0.385,0.156c-0.166,0.054-0.385,0.105-0.605,0.054c-0.219,0-0.439-0.054-0.659-0.21
		c0-0.054-0.055-0.054-0.11-0.105l-0.054-0.104c0-0.055-0.055-0.104-0.055-0.158c-0.055,0-0.055,0-0.055-0.052
		c-0.11-0.264-0.165-0.524-0.165-0.788c0.055-0.631,0.33-1.102,0.825-1.521l0.055-0.053l0.054-0.053
		c0.935-0.473,1.979-0.839,3.188-0.998c0.605-0.051,1.209,0.055,1.759,0.369c0.495,0.314,0.825,0.734,0.935,1.206
		c0.275,0.894,0.33,1.733,0.275,2.572c0,0.052,0,0.104,0,0.157c-0.055,0.893-0.11,1.783-0.22,2.677l-0.22,2.625l-0.11,1.363
		c-0.055,0.42-0.055,0.84-0.055,1.26c0.055,0.472,0.055,0.891,0.11,1.311c0.055,0.105,0.055,0.211,0.055,0.369
		c0.055,0.314,0.055,0.63,0.109,0.944c0.055,0.419,0.165,0.84,0.33,1.206c0.165,0.42,0.385,0.734,0.77,0.999
		c0.33,0.209,0.77,0.314,1.265,0.365c0.494,0.054,0.989,0,1.484-0.104C44.969,174.934,48.376,173.15,52.114,169.896z
		 M38.482,151.057h0.055c0.055,0.314-0.055,0.631-0.275,0.891c-0.275,0.264-0.549,0.474-0.824,0.63
		c-0.66,0.368-1.375,0.525-2.089,0.63c-0.77,0.054-1.54,0-2.309-0.156c-0.33-0.105-0.715-0.264-1.044-0.474
		c-0.385-0.262-0.604-0.575-0.714-0.995c0-0.421,0.11-0.735,0.385-1.05c0.274-0.264,0.549-0.474,0.934-0.631
		c0.66-0.313,1.375-0.473,2.144-0.473c0.77-0.052,1.484,0.054,2.253,0.264c0.055,0,0.055,0,0.11,0
		c0.166,0.051,0.275,0.104,0.439,0.156c0.166,0.053,0.331,0.158,0.495,0.264C38.317,150.373,38.482,150.688,38.482,151.057z"/>
	<path fill="#3C3C3B" d="M129.676,96.791c0.055,0.053,0.11,0.157,0.11,0.21c0,0.104,0,0.209-0.055,0.261
		c-0.165,0.263-0.33,0.474-0.549,0.631h-0.055h-0.055l-7.861,0.629c-2.253,0.158-4.452,0.315-6.706,0.42
		c-0.385,0-0.77,0.054-1.21,0.054l-15.556,0.892l-0.769,13.854c0.055,0.105,0.055,0.265,0.055,0.366c0,0.107,0,0.21,0,0.264
		s0,0.105,0,0.155l-0.11,0.789l-0.11,1.521c-0.055,0.63-0.11,1.313-0.165,1.997c0,0.365-0.055,0.732-0.055,1.1l-0.385,6.14
		c0,0.788-0.055,1.576-0.11,2.416c-0.22,3.305-0.385,6.612-0.55,9.918l-0.66,12.334l-0.055,1.521c0,0.157,0,0.313-0.054,0.473
		c0,0.366,0,0.734,0,1.101l0.054,3.098l0.166,5.929v0.21c0,0.105,0,0.211,0,0.315c0,0.053,0,0.104,0,0.158v0.21
		c-0.055,1.365,0.055,2.676,0.22,3.988c0.109,0.734,0.329,1.364,0.659,1.94c0.165,0.315,0.385,0.524,0.715,0.735
		c0.275,0.158,0.549,0.314,0.934,0.367c0.495,0.052,1.044,0.105,1.595,0.052c0.549,0,1.044-0.104,1.594-0.209
		c1.044-0.21,2.089-0.577,3.078-1.05c1.924-0.945,3.628-2.204,5.167-3.778c0.77-0.736,1.484-1.521,2.144-2.361
		c0.055-0.053,0.11-0.105,0.165-0.209c0.11-0.159,0.22-0.264,0.384-0.42c0.166-0.21,0.385-0.369,0.66-0.525
		c0.11-0.105,0.22-0.158,0.385-0.263c0,0,0,0,0.055,0c0,0,0.055,0,0.11,0c0.055,0,0.165,0,0.219,0
		c0.11,0.053,0.166,0.104,0.166,0.157c0.054,0.105,0.054,0.157,0.054,0.211c0.055,0.156,0,0.315,0,0.471
		c-0.054,0.105-0.109,0.264-0.165,0.369c-0.385,1.049-0.934,1.993-1.649,2.833c-0.66,0.84-1.429,1.627-2.254,2.311
		c-0.824,0.733-1.649,1.414-2.528,2.098c-0.935,0.631-1.869,1.207-2.858,1.68c-2.089,0.997-4.233,1.416-6.542,1.311
		c-1.209-0.104-2.254-0.524-3.133-1.259c-0.88-0.786-1.43-1.731-1.759-2.78c-0.605-2.1-0.935-4.199-0.935-6.352v-0.21h0.11
		l-0.11-5.613c-0.055,0.155-0.11,0.314-0.22,0.471c0,0.053,0,0.053,0,0.105c-0.22,0.629-0.495,1.258-0.77,1.838
		c-0.33,0.629-0.66,1.258-1.099,1.834c-0.386,0.579-0.825,1.104-1.375,1.575c-0.605,1.26-1.43,2.414-2.474,3.465
		c-0.989,0.998-2.034,1.993-3.133,2.887c-2.253,1.939-4.837,3.199-7.805,3.883c-0.715,0.156-1.484,0.211-2.199,0.211
		c-0.385,0-0.77,0-1.154,0c-0.385-0.055-0.77-0.159-1.1-0.264c-0.77-0.21-1.43-0.576-2.034-1.05
		c-0.549-0.472-1.044-1.05-1.374-1.679c-0.66-1.312-1.045-2.676-1.21-4.094c-0.22-1.416-0.33-2.781-0.385-4.198v-0.262h0.11
		l-0.11-5.932c-0.055,0.158-0.11,0.314-0.22,0.473l-0.385,1.102c-0.054,0.105-0.109,0.211-0.165,0.314
		c-0.11,0.264-0.22,0.475-0.33,0.735c-0.33,0.684-0.715,1.364-1.21,2.048c-0.219,0.314-0.439,0.63-0.714,0.891
		c-0.165,0.159-0.33,0.315-0.44,0.474c-0.33,0.315-0.825,0.631-1.484,0.945c-0.605,0.366-0.879,0.524-0.879,0.524l-0.55,0.21
		c-0.714-0.315-0.714-0.788,0.055-1.364c1.704-1.418,2.969-3.254,3.848-5.563c0.879-2.363,1.429-4.253,1.649-5.722
		c0.22-1.207,0.495-2.361,0.715-3.568l-0.11-45.081l-20.668,1.68l-10.499,0.839l-10.5,0.893l-0.11-0.525
		c3.408-0.84,6.926-1.469,10.389-1.995c3.518-0.525,7.036-0.997,10.554-1.312c3.518-0.368,7.036-0.734,10.554-1.049l10.334-0.998
		l-0.055-8.134l0.385-19.051c0-0.42,0-0.84,0-1.26c0-2.781,0.165-5.51,0.385-8.238c0.055-0.788,0.165-1.575,0.22-2.415l0.11-0.577
		l0.11-0.577l0.22-1.208c0.165-0.787,0.494-1.575,0.879-2.309c0.22-0.314,0.55-0.629,0.935-0.945
		c0.385-0.262,0.77-0.367,1.264-0.419c0.495,0,0.935,0.105,1.319,0.315c0.44,0.262,0.715,0.577,0.935,0.944
		c0.44,0.734,0.66,1.522,0.77,2.362c0.275,1.574,0.384,3.149,0.384,4.775c0,0.262,0,0.525,0,0.839
		c0.055,0.525,0.055,0.998,0.055,1.523l-0.055,2.414l-0.109,4.723l-0.824,19.05c0,0.053,0,0.053,0,0.053v0.052v0.157v0.263
		l-0.055,0.472L71.793,93.8l-0.11,1.994l-0.22,3.726l9.894-0.577c0.604-0.052,1.209-0.105,1.814-0.105
		c1.1-0.104,2.199-0.157,3.244-0.209l2.529-0.314l1.264-0.158c0.055,0,0.165,0,0.22,0c0.274-0.053,0.604-0.105,0.879-0.157
		l0.33-17.423c0-0.419,0-0.788,0-1.208c0.055-2.519,0.165-5.091,0.385-7.609c0.055-0.735,0.165-1.469,0.22-2.205l0.055-0.524
		l0.11-0.577l0.22-1.103c0.165-0.735,0.44-1.417,0.88-2.1c0.439-0.683,1.099-1.101,1.978-1.207c0.44-0.053,0.825,0.052,1.21,0.263
		c0.33,0.209,0.66,0.472,0.824,0.839c0.11,0.158,0.22,0.315,0.275,0.473c0.055,0.157,0.11,0.262,0.165,0.367
		c0,0.053,0,0.105,0.055,0.21c0,0.052,0,0.105,0.055,0.157c0,0.105,0.054,0.262,0.109,0.368c0.055,0.157,0.055,0.367,0.11,0.524
		c0.22,1.47,0.33,2.939,0.33,4.409c0,0.263,0,0.525,0.055,0.788c0,0.472,0,0.944,0,1.417l-0.055,2.204l-0.055,4.408l-0.825,17.476
		l26.605-1.47c0.11,0,0.275,0,0.44,0c0.935-0.105,1.869-0.105,2.858-0.105h0.055c0.549,0,1.044,0.053,1.594,0.157
		C129.402,96.582,129.566,96.686,129.676,96.791z M68.605,95.689c-0.055,0.945-0.055,1.837-0.11,2.73l0.055,1.416l0.44-0.052
		l0.22-3.936c0-0.631,0.055-1.313,0.11-1.995l0.055-0.997l0.055-0.525v-0.263v-0.105v-0.052c0,0,0,0,0.055-0.052l0.22-4.251
		l0.165-4.251l0.33-8.501c0.109-2.887,0.165-5.668,0.055-8.502c0-0.734-0.055-1.417-0.11-2.152l-0.165-2.099
		c-0.055-0.683-0.11-1.417-0.22-2.1c-0.055-0.366-0.11-0.681-0.165-1.049c-0.055,0-0.055,0-0.055,0c0-0.052,0-0.052,0-0.052
		c-0.055,0.209-0.055,0.42-0.11,0.629c0,0.105,0,0.21-0.055,0.368c0,0.104-0.055,0.209-0.055,0.367
		c-0.055,0.21-0.055,0.42-0.11,0.63c0,0.367,0,0.735-0.055,1.049c0,0.735-0.055,1.417-0.055,2.151v1.05v0.524v0.053
		c0,0.052,0,0.052,0.055,0.052v0.157c0,0.053,0,0.158,0,0.263l-0.22,8.554l-0.22,8.501c0,0.473,0,0.997-0.055,1.47
		c0,0.944-0.054,1.836-0.054,2.781l0.054,4.199c0,0.052,0,0.052,0,0.052v0.052v0.053v0.104v0.21v0.419v0.84l-0.054,1.678
		C68.605,95.322,68.605,95.479,68.605,95.689z M68.55,103.194c0,0.052,0,0.157,0,0.209c0.055,0.158,0.055,0.263,0.055,0.368
		c0,0.157,0,0.263,0,0.368c-0.055,0.052-0.055,0.157-0.055,0.209c0,0.21,0,0.42,0.055,0.629c0,0.105,0,0.21,0,0.368l0.274-3.412
		c-0.11,0-0.274,0-0.385,0C68.495,102.354,68.55,102.774,68.55,103.194z M87.185,161.498c0.165-0.209,0.33-0.365,0.495-0.576
		c0.275-0.419,0.55-0.839,0.825-1.313c0.385-0.734,0.714-1.521,0.989-2.309c0.055-0.156,0.109-0.314,0.22-0.471
		c0.604-1.943,1.154-3.938,1.54-5.932l0.274-1.364c-0.055-2.625-0.11-5.301-0.11-7.924c0-1.47,0-2.939-0.055-4.408
		c0-1.733,0-3.517,0-5.302c0.055-2.36,0-4.67,0-6.979l-0.055-12.334v-6.14c0-1.994-0.055-3.989-0.22-5.931
		c-1.429,0-2.858,0.053-4.288,0.157c-0.165,0.053-0.329,0.053-0.495,0.053l-5.057,0.42l-9.785,0.787l-0.385,6.824
		c0.055,0.156,0.055,0.262,0.055,0.42c0,0.103,0,0.156,0,0.21c0,0,0,0,0,0.052v0.209l-0.11,0.84l-0.109,1.628
		c-0.055,0.732-0.11,1.47-0.166,2.151c0,0.419-0.055,0.788-0.055,1.208l-0.385,6.663c-0.055,0.786-0.109,1.523-0.165,2.255
		c-0.22,3.729-0.385,7.401-0.605,11.128l-0.714,13.331l-0.055,1.68c0,0.156-0.055,0.314-0.055,0.524c0,0.366,0,0.734,0,1.154
		l0.055,3.359l0.165,6.454v0.21c0,0.104,0,0.209,0,0.314c0,0.054,0,0.104,0,0.159v0.261c-0.055,1.47,0,2.887,0.22,4.303
		c0.11,0.788,0.33,1.47,0.66,2.153c0.165,0.314,0.44,0.576,0.714,0.785c0.331,0.159,0.66,0.316,1.044,0.421
		c0.11,0,0.275,0,0.385,0.054c0.055,0,0.11,0,0.165,0h0.549c0.385,0.051,0.77,0,1.155,0c0.77-0.105,1.484-0.264,2.254-0.475
		c1.429-0.471,2.803-1.101,4.067-1.939c1.264-0.84,2.418-1.785,3.518-2.834c0.495-0.579,1.044-1.104,1.539-1.68
		c0.22-0.264,0.495-0.578,0.714-0.84c0.11-0.104,0.166-0.209,0.275-0.368c0.11-0.156,0.275-0.314,0.44-0.524
		c0-0.052,0.055-0.105,0.11-0.157c0.055-0.053,0.11-0.053,0.165-0.104C87.02,161.657,87.075,161.553,87.185,161.498z M69.32,57.379
		v0.052V57.379z M94.825,104.874c0,1.101,0,2.152,0,3.254v1.26l0.166-2.311h0.055c0-0.629,0-1.207,0-1.837c0-0.104,0-0.263,0-0.367
		c0.055-0.473,0.055-0.945,0.11-1.417c0.055-0.472,0.055-0.945,0.109-1.365c0-0.157,0-0.314,0-0.472l0.11-1.522
		c-0.22,0.053-0.385,0.053-0.495,0.105c-0.109,0.525-0.109,1.05-0.109,1.627c0,0.105,0,0.158,0,0.21l0.054,2.047
		C94.825,104.348,94.825,104.611,94.825,104.874z M95.76,93.643l0.22-4.409l0.44-8.921h0.055c-0.055-0.945-0.055-1.889-0.11-2.782
		l-0.055-2.834c0-0.944,0-1.889-0.11-2.781l-0.11-1.417c0-0.473-0.11-0.945-0.165-1.417c-0.055-0.42-0.165-0.892-0.275-1.364
		l-0.055-0.262c0,0.052-0.055,0.157-0.055,0.209s0,0.104,0,0.157l-0.11,0.682c-0.055,0.105-0.055,0.21-0.055,0.263
		c-0.055,0.367-0.11,0.735-0.11,1.103c-0.054,0.944-0.054,1.889-0.054,2.833v0.682v0.368v0.158v0.105
		c0.054,0.523,0.109,0.997,0.054,1.469c-0.054,1.207-0.054,2.414-0.109,3.621c0,0.683,0,1.365,0,2.047l-0.165,5.615l-0.11,5.615
		L94.825,93.8v1.417l0.055,2.572l0.604,0.053L95.76,93.643z M95.375,66.301c0,0.052,0,0.052,0,0.052
		C95.375,66.301,95.375,66.301,95.375,66.301z"/>
	<path fill="#3C3C3B" d="M121.156,175.983l-0.77-0.105c-0.165,0-0.384-0.051-0.549-0.104c-0.055,0-0.165,0-0.275-0.052
		c-0.055,0-0.165,0-0.274-0.053c-0.166,0-0.33-0.052-0.495-0.104c-1.1-0.262-2.089-0.682-3.023-1.26
		c-0.934-0.576-1.704-1.312-2.419-2.151c-0.66-0.893-1.1-1.838-1.429-2.834c-0.33-1.049-0.44-2.048-0.44-3.148
		c0.055-1.049,0.22-2.048,0.549-3.098c0.605-1.94,1.375-3.884,2.309-5.72c0.99-1.889,2.144-3.621,3.573-5.195
		c0.715-0.787,1.485-1.521,2.364-2.151c0.385-0.369,0.879-0.684,1.319-0.945c0.55-0.263,1.044-0.473,1.649-0.629
		c1.154-0.264,2.308-0.055,3.408,0.576c0.55,0.314,0.88,0.788,1.1,1.418c0.109,0.577,0.165,1.155,0,1.68
		c-0.44,2.099-1.43,3.988-2.804,5.667c-1.429,1.627-3.078,2.939-5.057,3.936c-0.935,0.473-1.759,1.049-2.529,1.732
		c-0.33,0.315-0.66,0.682-0.935,1.102c-0.22,0.42-0.385,0.84-0.495,1.313c-0.165,0.945-0.11,1.89,0.22,2.835
		c0.274,0.995,0.769,1.783,1.483,2.519c0.33,0.314,0.715,0.576,1.21,0.839c0.44,0.211,0.879,0.367,1.429,0.473
		c0.989,0.209,2.034,0.314,3.078,0.314c1.759-0.156,3.463-0.525,5.112-1.102c1.649-0.578,3.188-1.364,4.673-2.309
		c1.484-0.945,2.913-1.889,4.343-2.939c1.318-0.998,2.638-2.047,3.958-3.149c0.054,0,0.109-0.052,0.109-0.052
		c0.165-0.367,0.385-0.632,0.77-0.682c0.165-0.054,0.385-0.054,0.549,0.05c0.11,0.056,0.22,0.105,0.275,0.211
		c0,0.054,0,0.105,0,0.105c0.055,0.104,0.055,0.158,0.055,0.21l-0.165,0.21c-0.165,0.158-0.33,0.368-0.495,0.523
		c-0.494,0.526-1.044,1.051-1.539,1.575c-0.77,0.734-1.485,1.47-2.254,2.152c-1.539,1.416-3.188,2.781-4.893,4.041
		c-1.704,1.259-3.518,2.309-5.497,3.148c-2.034,0.84-4.123,1.26-6.376,1.208c-0.055,0-0.055,0-0.11,0c-0.109,0-0.22,0-0.275,0
		L121.156,175.983z M120.606,158.299c1.319-0.684,2.364-1.68,3.078-2.992c0.385-0.577,0.604-1.261,0.66-1.941
		c0-0.104,0.055-0.209,0.055-0.314c0-0.054,0-0.159,0-0.209c0-0.105,0-0.211-0.11-0.265c-0.054-0.104-0.109-0.156-0.22-0.156
		c-0.109,0-0.165,0-0.274,0l-0.055,0.052c-0.055,0.054-0.11,0.104-0.165,0.158c-0.055,0-0.11,0.052-0.11,0.052
		c-0.11,0.054-0.165,0.159-0.22,0.209c-0.11,0.054-0.165,0.105-0.22,0.159c-0.275,0.21-0.55,0.471-0.825,0.682
		c-0.549,0.524-0.989,1.049-1.429,1.627c-0.054,0.105-0.109,0.211-0.22,0.315c-0.274,0.315-0.604,0.786-0.934,1.364
		c-0.385,0.576-0.66,1.207-0.879,1.836c0,0,0.11,0,0.22,0c0.11-0.051,0.275-0.105,0.495-0.156c0.22-0.054,0.384-0.105,0.604-0.211
		c0.22-0.053,0.384-0.104,0.494-0.209H120.606z"/>
	<path fill="#3C3C3B" d="M164.582,153.785c-0.77,1.73-0.825,3.096-0.33,4.145c0.549,0.998,2.034,2.311,4.452,3.885
		c2.419,1.574,5.387,1.942,8.905,1.103c0.331,0.052,0.495,0.21,0.55,0.524c0,0.315-0.165,0.526-0.44,0.63
		c-3.188,2.57-7.146,2.311-11.874-0.893c-2.143-1.312-3.408-1.995-3.738-2.046c-0.385-0.054-0.88,0.734-1.594,2.256
		c-0.605,1.259-1.1,2.414-1.484,3.517c-0.66,2.1-1.979,4.514-3.958,7.189c-1.979,2.309-4.342,3.464-7.146,3.464
		c-0.109,0-0.274,0-0.439,0c-2.914-0.211-5.167-1.416-6.707-3.675c-0.44-0.733-0.77-1.574-1.1-2.52
		c-0.274-0.943-0.44-1.834-0.44-2.57c0.166-4.407,2.364-8.291,6.542-11.649c2.858-2.153,5.607-3.148,8.245-3.099
		c-1.869-1.363-3.738-2.938-5.717-4.773c-1.924-1.785-3.298-3.098-4.123-3.988c-10.389-10.55-17.095-23.775-20.228-39.624
		c-0.22-1.155-0.495-2.834-0.77-4.986c-0.275-2.204-0.44-3.989-0.495-5.3c-0.11-4.198,0.385-8.606,1.429-13.33
		c2.418-8.187,8.631-15.167,18.634-20.94c9.895-5.352,19.515-7.504,28.805-6.455c11.103,1.785,17.591,7.505,19.458,17.161
		c0.605,4.303,0.552,8.449-0.164,12.438c-0.716,4.042-1.703,7.768-2.914,11.231c-4.562,12.962-9.564,25.664-14.951,38.101
		c-2.474,5.826-4.893,11.704-7.311,17.633c-0.165,0.369-0.33,0.789-0.495,1.154h-0.055
		C164.912,152.842,164.747,153.313,164.582,153.785z M160.075,154.311v0.051c0.055,0,0.055,0,0.055,0
		c0.109,0.055,0.22,0.158,0.33,0.211c0.11,0.053,0.22,0.105,0.275,0.105c0.054,0,0.054,0,0.054-0.053c0,0,0,0,0.055-0.053
		c0.275-0.471,0.495-1.051,0.66-1.575c0.11-0.366,0.275-0.733,0.44-1.206c1.979-4.723,3.958-9.394,5.882-14.013
		c6.541-14.904,12.423-29.967,17.591-45.186c1.043-3.148,1.866-6.56,2.472-10.339c0.55-3.726,0.274-7.504-0.714-11.283
		c-2.693-8.711-9.125-13.067-19.294-13.067c-0.055,0-0.11,0-0.11,0c-8.795-0.105-17.151,2.519-25.121,7.872
		c-6.872,4.775-11.214,9.971-13.028,15.691c-1.814,5.72-2.474,11.178-2.034,16.321c-0.055,1.889,0.55,5.721,1.759,11.44
		s3.903,12.335,8.025,19.943c4.068,7.557,10.444,15.008,19.02,22.41C157.876,152.787,159.085,153.681,160.075,154.311z
		 M144.518,171.523c0.55,1.101,1.43,1.836,2.583,2.151c2.254,0.524,3.958,0,5.167-1.521c1.209-1.522,2.199-3.359,3.023-5.512
		c0,0,0,0,0.055,0c0.165-0.471,0.384-0.943,0.604-1.416c0.549-1.208,1.099-2.413,1.594-3.622c0.55-1.26,0.88-2.255,1.1-2.99
		c0.055-0.209,0.055-0.314,0.055-0.42c0-0.053-0.055-0.158-0.166-0.209c-0.604-0.734-1.923-1.05-3.847-1.05
		c-0.44,0-0.935,0-1.485,0.104c-1.1,0.105-2.418,0.576-4.013,1.469c-1.539,0.893-2.968,2.52-4.288,4.934
		C143.639,166.538,143.474,169.267,144.518,171.523z"/>
	<path fill="#3C3C3B" d="M273.916,163.336c0,0.105,0,0.157-0.108,0.315c-0.056,0.105-0.166,0.316-0.386,0.525
		c-0.166,0.21-0.44,0.471-0.77,0.786c-0.33,0.314-0.77,0.735-1.319,1.208c-0.55,0.471-1.21,0.996-2.035,1.625
		c-1.483,1.209-3.242,2.363-5.164,3.519c-3.959,2.309-7.862,3.883-11.653,4.669c-1.926,0.42-3.905,0.578-5.884,0.578
		c-2.252,0-4.563-0.264-6.816-0.788c-3.737-0.891-7.476-2.623-11.268-5.194l-2.585-2.048c-5.223-4.563-9.455-9.604-12.698-15.113
		l-1.264-2.151l-1.1-2.258c-0.549-1.102-1.043-2.256-1.482-3.464c0,0,0-0.052-0.057-0.052c-0.109-0.368-0.22-0.684-0.384-1.049
		c-0.219-0.63-0.496-1.26-0.659-1.89l-0.826-2.782c-0.166-0.577-0.273-1.05-0.386-1.575c0-0.051-0.054-0.104-0.054-0.156
		c-0.054-0.263-0.11-0.473-0.167-0.684l-0.383-1.836l-0.11-0.629c-1.099-6.09-1.319-12.648-0.659-19.576
		c0.22-2.938,0.714-6.139,1.373-9.761c0.605-3.254,1.375-6.456,2.365-9.551c1.979-6.665,4.672-12.7,8.082-18.106
		c1.759-2.834,3.737-5.511,5.824-8.082c2.312-2.781,4.729-5.09,7.256-7.084c2.805-2.099,5.772-3.779,8.961-5.039
		c1.705-0.629,3.408-1.102,5.058-1.364c0.989-0.158,1.869-0.21,2.639-0.263c0.879,0,1.758,0.052,2.692,0.157
		c0.935,0.105,1.814,0.315,2.584,0.525c0.826,0.263,1.649,0.63,2.473,1.05c1.485,0.788,2.858,1.837,4.124,3.201
		c2.089,2.31,3.685,5.248,4.837,8.817l0.22,0.683l-0.165,0.052c1.045,3.568,1.65,7.714,1.814,12.543
		c0.22,4.146,0,8.607-0.495,13.331c-0.987,8.973-3.187,17.632-6.485,25.872c-3.41,8.555-7.972,16.271-13.744,23.144
		c-5.551,6.719-12.421,12.387-20.503,17.004c1.926,2.1,4.012,4.042,6.211,5.827l0.22,0.155c3.244,2.362,6.597,3.989,10.061,4.934
		c3.958,1.05,7.806,1.103,11.434,0.21c1.926-0.471,3.738-1.101,5.497-1.889c1.813-0.787,3.572-1.68,5.168-2.625
		c1.702-1.049,3.297-2.099,4.837-3.2l1.155-0.893l1.1-0.945c0.767-0.576,1.373-0.944,1.866-1.101
		c0.496-0.104,0.825-0.159,0.992-0.159c0.273,0.055,0.493,0.105,0.659,0.265c0.054,0.051,0.108,0.104,0.108,0.21
		C273.916,163.232,273.916,163.284,273.916,163.336z M260.283,70.131c-0.274-0.997-0.604-1.836-0.88-2.624
		c-0.164-0.42-0.328-0.787-0.548-1.154l-0.112-0.263c-0.163-0.42-0.384-0.787-0.604-1.154l-0.109-0.209
		c-0.166-0.316-0.386-0.577-0.55-0.893c-0.109-0.104-0.22-0.262-0.33-0.42c-0.109-0.157-0.165-0.261-0.329-0.367
		c-0.057-0.053-0.11-0.157-0.164-0.21c-0.056-0.052-0.112-0.157-0.166-0.209c-0.109-0.157-0.22-0.263-0.33-0.368
		c-0.11-0.104-0.22-0.209-0.329-0.315c-0.054,0-0.054,0-0.054,0c-0.221-0.263-0.496-0.525-0.772-0.683
		c-0.107-0.052-0.164-0.157-0.273-0.209c-0.11-0.105-0.273-0.157-0.387-0.262l-0.713-0.368c-0.989-0.524-1.979-0.839-2.912-0.944
		c-0.387-0.105-0.826-0.105-1.212-0.157c-0.107,0-0.273,0-0.384,0c-0.163,0-0.329,0-0.495,0c-0.108,0-0.221,0-0.328,0
		c-0.056,0.052-0.166,0.052-0.276,0.052c-0.163,0-0.329,0-0.495,0c-1.866,0.21-3.958,0.788-6.21,1.731
		c-1.926,0.788-3.792,1.837-5.607,3.148c-1.54,1.051-3.188,2.468-4.947,4.146c-3.188,3.044-5.883,6.351-8.082,9.919l-0.107,0.209
		l-0.057-0.052c-0.163,0.314-0.329,0.629-0.495,0.944h-0.054c-0.66,1.208-1.374,2.467-1.979,3.674
		c-0.713,1.312-1.373,2.677-1.979,3.989c-0.054,0.053-0.054,0.053-0.054,0.105c-0.166,0.314-0.276,0.629-0.439,0.892
		c-1.376,3.097-2.695,6.56-3.851,10.286l-0.768,2.677c-0.166,0.525-0.332,1.049-0.439,1.626c0,0,0,0.054-0.056,0.105
		c-0.057,0.314-0.11,0.629-0.221,0.892c-0.163,0.682-0.33,1.365-0.439,2.047l-0.164,0.891c-0.22,0.787-0.332,1.627-0.495,2.415
		c-0.55,3.358-0.88,7.031-0.989,10.915c-0.055,1.521-0.055,3.045,0,4.514v0.996c0.053,0.368,0.053,0.787,0.053,1.156
		c0.112,1.417,0.22,2.832,0.333,4.302c0.327,3.781,1.043,7.35,2.032,10.708c0.22,0.576,0.386,1.206,0.605,1.784
		c0.108,0.261,0.164,0.524,0.274,0.785c0.109,0.265,0.165,0.526,0.273,0.789c0.22,0.576,0.44,1.206,0.715,1.784
		c0.66,1.521,1.43,3.201,2.419,4.935c1.044,1.783,2.036,3.357,2.969,4.668c0.825,1.154,1.813,2.469,3.024,3.885
		c7.749-4.461,14.347-9.972,19.789-16.531c5.497-6.612,9.896-14.066,13.193-22.356c3.132-8.083,5.221-16.427,6.156-25.086
		c0.494-4.618,0.659-8.921,0.439-12.91c-0.22-4.986-0.879-9.184-1.926-12.7L260.283,70.131z"/>
	<path fill="#3C3C3B" d="M281.558,175.983l-0.77-0.105c-0.163,0-0.384-0.051-0.55-0.104c-0.054,0-0.166,0-0.273-0.052
		c-0.057,0-0.166,0-0.276-0.053c-0.164,0-0.33-0.052-0.496-0.104c-1.099-0.262-2.087-0.682-3.021-1.26
		c-0.936-0.576-1.704-1.312-2.419-2.151c-0.66-0.893-1.1-1.838-1.43-2.834c-0.329-1.049-0.439-2.048-0.439-3.148
		c0.054-1.049,0.22-2.048,0.55-3.098c0.604-1.94,1.375-3.884,2.309-5.72c0.989-1.889,2.146-3.621,3.571-5.195
		c0.716-0.787,1.486-1.521,2.366-2.151c0.385-0.369,0.879-0.684,1.319-0.945c0.548-0.263,1.045-0.473,1.648-0.629
		c1.155-0.264,2.308-0.055,3.408,0.576c0.549,0.314,0.879,0.788,1.099,1.418c0.11,0.577,0.167,1.155,0,1.68
		c-0.439,2.099-1.43,3.988-2.805,5.667c-1.426,1.627-3.077,2.939-5.057,3.936c-0.934,0.473-1.759,1.049-2.526,1.732
		c-0.333,0.315-0.66,0.682-0.937,1.102c-0.219,0.42-0.383,0.84-0.495,1.313c-0.163,0.945-0.108,1.89,0.22,2.835
		c0.275,0.995,0.772,1.783,1.485,2.519c0.329,0.314,0.713,0.576,1.21,0.839c0.439,0.211,0.879,0.367,1.43,0.473
		c0.988,0.209,2.032,0.314,3.077,0.314c1.759-0.156,3.465-0.525,5.111-1.102c1.651-0.578,3.19-1.364,4.674-2.309
		c1.482-0.945,2.914-1.889,4.341-2.939c1.319-0.998,2.64-2.047,3.958-3.149c0.057,0,0.112-0.052,0.112-0.052
		c0.163-0.367,0.384-0.632,0.767-0.682c0.166-0.054,0.387-0.054,0.553,0.05c0.108,0.056,0.22,0.105,0.273,0.211
		c0,0.054,0,0.105,0,0.105c0.054,0.104,0.054,0.158,0.054,0.21l-0.164,0.21c-0.163,0.158-0.329,0.368-0.495,0.523
		c-0.494,0.526-1.043,1.051-1.54,1.575c-0.768,0.734-1.481,1.47-2.252,2.152c-1.539,1.416-3.188,2.781-4.891,4.041
		c-1.706,1.259-3.519,2.309-5.497,3.148c-2.036,0.84-4.125,1.26-6.377,1.208c-0.056,0-0.056,0-0.111,0c-0.108,0-0.221,0-0.273,0
		L281.558,175.983z M281.008,158.299c1.319-0.684,2.362-1.68,3.078-2.992c0.384-0.577,0.604-1.261,0.659-1.941
		c0-0.104,0.057-0.209,0.057-0.314c0-0.054,0-0.159,0-0.209c0-0.105,0-0.211-0.112-0.265c-0.055-0.104-0.108-0.156-0.22-0.156
		c-0.107,0-0.164,0-0.274,0l-0.054,0.052c-0.056,0.054-0.112,0.104-0.166,0.158c-0.053,0-0.11,0.052-0.11,0.052
		c-0.109,0.054-0.163,0.159-0.219,0.209c-0.11,0.054-0.164,0.105-0.221,0.159c-0.276,0.21-0.549,0.471-0.822,0.682
		c-0.553,0.524-0.992,1.049-1.433,1.627c-0.053,0.105-0.107,0.211-0.22,0.315c-0.272,0.315-0.603,0.786-0.933,1.364
		c-0.387,0.576-0.66,1.207-0.88,1.836c0,0,0.11,0,0.22,0c0.11-0.051,0.273-0.105,0.493-0.156c0.221-0.054,0.387-0.105,0.606-0.211
		c0.221-0.053,0.386-0.104,0.493-0.209H281.008z"/>
	<path fill="#3C3C3B" d="M302.172,173.623c-0.772,0.155-1.595,0.211-2.419,0.211c-0.878,0-1.704-0.315-2.418-0.895
		c-0.333-0.261-0.552-0.576-0.772-0.944c-0.22-0.366-0.383-0.786-0.439-1.207c-0.054-0.893,0.112-1.679,0.553-2.412
		c0.439-0.684,0.933-1.314,1.482-1.838c1.1-1.155,2.255-2.205,3.518-3.149c2.476-1.994,5.334-3.41,8.466-4.25
		c3.132-0.789,6.322-0.998,9.564-0.578c0.823,0.104,1.649,0.314,2.418,0.629c0.385,0.211,0.717,0.42,1.1,0.631
		c0.165,0.158,0.33,0.263,0.44,0.42c0.11,0.104,0.22,0.209,0.276,0.367c0.054,0.157,0.107,0.262,0.107,0.42
		c-0.054,0.315-0.164,0.576-0.384,0.787c-0.22,0.21-0.496,0.314-0.823,0.314c-0.22,0-0.387,0-0.496-0.052
		c-0.057,0-0.11-0.053-0.164-0.053l-0.606-0.105l-0.549-0.156c-0.11,0-0.221,0-0.384-0.054c-0.056,0-0.112,0-0.166,0
		c-0.166-0.052-0.274-0.052-0.439-0.105c-0.22,0-0.493-0.051-0.714-0.105c-1.539-0.155-3.077-0.155-4.673,0.055
		c-1.539,0.156-3.022,0.524-4.454,1.1c-1.427,0.58-2.746,1.315-4.012,2.205c-1.21,0.893-2.309,1.943-3.299,3.098
		c-0.219,0.261-0.385,0.471-0.549,0.735c-0.057,0.051-0.11,0.104-0.164,0.156l-0.332,0.473l-0.164,0.211
		c-0.056,0.051-0.056,0.104-0.056,0.155c-0.054,0.104,0,0.21,0.056,0.315c0.057,0.053,0.164,0.105,0.276,0.105l0.053,0.053
		c0.056-0.053,0.056-0.053,0.11-0.053h0.276c0.164,0,0.274-0.053,0.385-0.053c0.055-0.053,0.108-0.053,0.163-0.053
		c1.432-0.42,2.751-1.154,3.957-2.15c0.332-0.264,0.66-0.474,0.938-0.734c0.163-0.105,0.329-0.211,0.495-0.315
		c0.164-0.105,0.327-0.21,0.493-0.315c0.55-0.42,1.099-0.84,1.594-1.26c0.112-0.054,0.165-0.104,0.219-0.159
		c0.605-0.523,1.266-0.995,1.925-1.415c0.66-0.419,1.373-0.788,2.146-1.103c0.439-0.105,0.879-0.156,1.319-0.052
		c0.494,0.105,0.824,0.315,1.1,0.682c0.493,0.684,0.88,1.364,1.1,2.099c0,0.054,0,0.105,0,0.105
		c0.219,0.683,0.493,1.364,0.822,1.942c0.385,0.682,0.88,1.206,1.54,1.574c1.319,0.734,2.803,0.945,4.397,0.786
		c1.538-0.21,3.021-0.681,4.397-1.47c1.375-0.68,2.695-1.521,3.958-2.413c0.604-0.42,1.263-0.892,1.869-1.364l0.934-0.682
		l0.439-0.368c0.056-0.053,0.111-0.053,0.166-0.104c0.054-0.105,0.219-0.157,0.385-0.262h-0.056c0.056,0,0.056,0,0.056,0
		c0.055-0.054,0.108-0.054,0.164-0.105c0.057-0.054,0.165-0.054,0.275-0.054c0.164-0.051,0.329,0,0.495,0.054h0.054
		c0.112,0.052,0.165,0.105,0.275,0.21c0.11,0.105,0.164,0.209,0.164,0.366c0,0.104,0,0.264-0.054,0.369
		c-0.055,0.05-0.055,0.105-0.11,0.105c0,0.05-0.055,0.104-0.055,0.104l-0.056,0.052c-0.11,0.158-0.273,0.315-0.439,0.473
		l-0.385,0.421l-0.055-0.054c-0.549,0.578-1.152,1.049-1.813,1.47c-0.659,0.473-1.319,0.893-1.979,1.313
		c-1.376,0.786-2.751,1.521-4.179,2.15c-1.432,0.684-2.915,1.26-4.453,1.68c-1.483,0.524-3.078,0.788-4.782,0.684
		c-0.824-0.054-1.594-0.314-2.31-0.735c-0.714-0.419-1.32-0.893-1.923-1.47c-0.057-0.053-0.11-0.104-0.164-0.209
		c-0.221-0.211-0.439-0.42-0.605-0.63l-0.387-0.474c-0.054-0.051-0.107-0.051-0.107-0.105c-0.112-0.104-0.166-0.21-0.275-0.26
		c-0.221-0.264-0.551-0.369-0.823-0.369c-0.333,0-0.66,0.105-0.993,0.264c-0.383,0.261-0.823,0.576-1.207,0.839
		c-2.091,1.626-4.343,2.938-6.872,3.936C303.765,173.308,302.995,173.519,302.172,173.623z"/>
	<path fill="#3C3C3B" d="M347.467,168.794c-1.431,0.525-2.804,1.102-4.123,1.732l-0.221,0.104c0,0.054,0,0.054,0,0.054
		c0.054,0,0.054,0.051,0.054,0.051c0.057,0,0.057,0.053,0.113,0.053c0.054,0,0.106,0.052,0.106,0.052
		c0.058,0,0.166,0.054,0.221,0.105l0.332,0.159l1.263,0.786l1.155,0.893c0.274,0.21,0.493,0.419,0.768,0.63
		c0.112,0.105,0.221,0.21,0.386,0.315c1.429,1.364,2.529,2.99,3.299,4.773c0.713,1.838,1.099,3.729,1.099,5.668
		c0,1.943-0.219,3.833-0.659,5.722c-0.387,1.835-0.879,3.725-1.485,5.51c-0.548,1.838-1.319,3.622-2.143,5.353
		c-0.879,1.732-1.923,3.359-3.134,4.934c-0.274,0.367-0.604,0.734-1.043,1.049c-0.44,0.369-0.937,0.578-1.483,0.684
		c-0.553,0.051-1.101,0.051-1.597-0.105c-0.55-0.104-0.989-0.314-1.428-0.684c-0.88-0.68-1.375-1.52-1.65-2.518
		c-0.164-0.262-0.549-3.044-1.042-8.292c-0.552-5.249-0.497-12.91,0.106-23.038c0.112-1.89,0.276-3.778,0.553-5.667
		c1.813-13.331,3.518-23.146,5.164-29.495c1.652-6.35,2.639-9.761,2.971-10.13c0.164-0.419,0.439-0.891,0.66-1.363
		c0.22-0.42,0.547-0.84,0.88-1.313c0.164-0.21,0.327-0.366,0.547-0.576c0.221-0.156,0.496-0.315,0.771-0.421
		c0.328-0.104,0.604-0.155,0.934-0.155c0.33,0.052,0.659,0.103,0.88,0.261h0.054c0.771,0.525,1.212,1.154,1.376,1.941
		c0.057,0.42,0.109,0.788,0.109,1.156c0,0.365,0,0.732-0.053,1.049c-0.167,1.471-0.44,2.833-0.826,4.2
		c-0.054,0.26-0.167,0.471-0.221,0.732c-0.109,0.42-0.22,0.893-0.33,1.313l-0.659,1.994c-0.163,0.473-0.276,0.894-0.44,1.313
		c-0.055,0.262-0.163,0.472-0.219,0.735c-0.11,0.21-0.164,0.42-0.276,0.63c-0.108,0.471-0.273,0.892-0.439,1.311l-3.023,7.926
		c-0.164,0.472-0.329,0.944-0.549,1.415c-0.273,0.84-0.605,1.681-0.989,2.521l-1.539,3.883c-0.276,1.364-0.604,3.254-0.936,5.826
		c-0.274,2.52-0.44,4.565-0.385,6.088c0.717-0.104,1.483-0.21,2.2-0.368c0.219-0.051,0.935-0.262,2.142-0.576
		c1.212-0.315,2.64-0.734,4.344-1.208c1.87-0.525,3.685-0.996,5.551-1.521c1.871-0.524,3.411-0.945,4.674-1.259
		c1.264-0.37,1.923-0.525,2.035-0.525c0,0,0.055,0.052,0.107,0.052l0.166,0.054c0.44,0.839,0.166,1.469-0.825,1.889
		c-0.987,0.366-5.165,1.73-12.588,4.04C347.906,168.636,347.687,168.741,347.467,168.794z M343.233,173.255v-0.053
		c-0.716-0.313-1.43-0.523-2.143-0.682c-0.387,0-0.66,0.104-0.826,0.368c-0.166,0.313-0.273,0.63-0.33,0.995
		c-0.11,0.525-0.11,1.05-0.163,1.629c0,0.156,0,0.365-0.057,0.576c0,0.314-0.057,0.63-0.057,0.944
		c-0.054,0.42-0.106,0.893-0.106,1.313c-0.167,3.044-0.276,6.035-0.221,9.078c0,3.044,0.108,6.037,0.327,9.026
		c0.166,1.524,0.333,3.044,0.497,4.515c0.056,0.263,0.109,0.523,0.109,0.733c0.054,0.526,0.109,0.999,0.22,1.47
		c0.054,0.368,0.167,0.684,0.33,0.998c0.056,0.156,0.163,0.262,0.22,0.315h0.057c0.054,0,0.054,0,0.107,0
		c0.605-0.263,1.155-0.684,1.652-1.26c0.493-0.578,0.933-1.155,1.317-1.784c0.769-1.26,1.428-2.624,1.979-3.989
		c1.152-2.781,1.979-5.668,2.473-8.606c0.273-1.469,0.439-2.938,0.494-4.408c0.056-1.522-0.055-2.992-0.385-4.408
		c-0.439-1.469-1.043-2.782-1.978-3.937C345.815,174.883,344.663,173.938,343.233,173.255z M349.28,127.386
		c-0.055-0.052-0.055-0.104-0.11-0.155c-0.056-0.054-0.11-0.106-0.163-0.106c-0.058-0.052-0.167,0-0.221,0.053
		c-0.111,0.054-0.22,0.157-0.386,0.314c0,0-0.494,1.312-1.54,3.83c-0.988,2.573-2.032,6.825-3.023,12.809l-0.768,4.513
		c0.107-0.265,0.274-0.735,0.548-1.313c0.771-1.784,1.814-4.459,3.024-8.028c1.209-3.568,2.088-7.506,2.639-11.81
		C349.28,127.491,349.28,127.441,349.28,127.386z"/>
</g>
</svg>
